<svg width="628" height="2142" viewBox="0 0 628 2142" fill="none" xmlns="http://www.w3.org/2000/svg">
<g filter="url(#filter0_f_176_294)">
<path d="M259.28 500.346C250.505 144.874 785.695 153.011 828.102 144.07C1001.36 556.993 1354.03 1426.16 1378.68 1599.44C1409.49 1816.04 1158.98 1775.09 796.116 1950.1C433.251 2125.11 464.545 1776.23 293.306 1561C122.067 1345.78 59.9314 1230.85 315.805 1120.33C571.679 1009.8 268.055 855.819 259.28 500.346Z" fill="#FF0000"/>
<path d="M400.787 608.452C393.262 303.624 852.203 310.601 888.569 302.934C1037.14 657.028 1339.57 1402.37 1360.7 1550.96C1387.13 1736.7 1172.31 1701.58 861.14 1851.66C549.972 2001.74 576.807 1702.56 429.965 1518C283.122 1333.44 229.839 1234.88 449.259 1140.1C668.678 1045.33 408.312 913.281 400.787 608.452Z" fill="#000AFF"/>
<path d="M520.322 681.047C513.885 420.3 906.459 426.269 937.566 419.71C1064.65 722.599 1323.34 1360.15 1341.42 1487.26C1364.03 1646.14 1180.27 1616.1 914.103 1744.48C647.934 1872.85 670.888 1616.93 545.28 1459.06C419.673 1301.19 374.095 1216.89 561.784 1135.82C749.473 1054.75 526.758 941.794 520.322 681.047Z" fill="#BD00FF"/>
</g>
<defs>
<filter id="filter0_f_176_294" x="0.340393" y="0.364319" width="1524.6" height="2140.97" filterUnits="userSpaceOnUse" color-interpolation-filters="sRGB">
<feFlood flood-opacity="0" result="BackgroundImageFix"/>
<feBlend mode="normal" in="SourceGraphic" in2="BackgroundImageFix" result="shape"/>
<feGaussianBlur stdDeviation="71.8528" result="effect1_foregroundBlur_176_294"/>
</filter>
</defs>
</svg>
