<svg width="1103" height="1807" viewBox="0 0 1103 1807" fill="none" xmlns="http://www.w3.org/2000/svg">
<g filter="url(#filter0_f_176_293)">
<path d="M325.028 251.293C67.1816 27.5222 -190.218 307.154 -286.687 474.942V495.052C-258.254 606.775 -201.998 871.05 -204.435 1034.37C-207.481 1238.52 -352.489 1198.91 -431.695 1389.65C-510.902 1580.39 -316.542 1692.52 -164.832 1613.3C-13.1212 1534.07 55.118 1228.16 262.882 1478.62C470.646 1729.08 736.291 1474.96 848.398 1373.19C960.506 1271.42 1015.95 945.397 680.238 751.608C344.525 557.82 647.337 531.006 325.028 251.293Z" fill="#EA2F42"/>
<path d="M313.349 343.515C91.9921 151.386 -128.982 391.478 -211.799 535.54V552.807C-187.389 648.732 -139.094 875.639 -141.186 1015.86C-143.801 1191.15 -268.289 1157.14 -336.286 1320.91C-404.283 1484.68 -237.428 1580.95 -107.188 1512.93C23.0533 1444.91 81.6356 1182.25 259.998 1397.3C438.359 1612.34 666.412 1394.16 762.654 1306.78C858.896 1219.4 906.494 939.472 618.291 773.086C330.087 606.699 590.046 583.677 313.349 343.515Z" fill="#AF01FF"/>
<path d="M300.717 443.775C118.828 285.873 -62.7459 483.193 -130.797 601.591V615.782C-110.74 694.618 -71.0553 881.102 -72.7745 996.346C-74.9234 1140.4 -177.214 1112.45 -233.088 1247.05C-288.961 1381.64 -151.857 1460.76 -44.8379 1404.86C62.1809 1348.96 110.318 1133.09 256.878 1309.83C403.438 1486.57 590.828 1307.25 669.91 1235.44C748.992 1163.62 788.103 933.564 551.287 796.819C314.47 660.073 528.078 641.153 300.717 443.775Z" fill="#4807E1"/>
</g>
<defs>
<filter id="filter0_f_176_293" x="-618" y="0" width="1721" height="1807" filterUnits="userSpaceOnUse" color-interpolation-filters="sRGB">
<feFlood flood-opacity="0" result="BackgroundImageFix"/>
<feBlend mode="normal" in="SourceGraphic" in2="BackgroundImageFix" result="shape"/>
<feGaussianBlur stdDeviation="84" result="effect1_foregroundBlur_176_293"/>
</filter>
</defs>
</svg>
