<svg width="1920" height="1413" viewBox="0 0 1920 1413" fill="none" xmlns="http://www.w3.org/2000/svg">
<g opacity="0.7" filter="url(#filter0_f_325_18)">
<path d="M262.5 511C110.5 493.4 25.8333 632.667 2.5 704.5V1262.5C18.3333 1259.33 65.8 1234.6 129 1161C208 1069 364 999.5 624 1085C884 1170.5 899.5 1148.5 1026.5 999.5C1153.5 850.5 1255 926.5 1534 1050C1757.2 1148.8 1882.67 1091.17 1917.5 1050V159C1914.33 186.5 1882 253.5 1778 301.5C1648 361.5 1616.5 203.5 1508.5 159C1400.5 114.5 1112 248 1026.5 374.5C941 501 452.5 533 262.5 511Z" fill="#FF0000"/>
<path d="M263 621.823C111 609.781 26.3333 705.067 3 754.216V1136C18.8333 1133.83 66.3 1116.91 129.5 1066.55C208.5 1003.61 364.5 956.055 624.5 1014.55C884.5 1073.05 900 1058 1027 956.055C1154 854.109 1255.5 906.108 1534.5 990.607C1757.7 1058.21 1883.17 1018.77 1918 990.607V380.984C1914.83 399.799 1882.5 445.641 1778.5 478.482C1648.5 519.535 1617 411.431 1509 380.984C1401 350.537 1112.5 441.878 1027 528.429C941.5 614.981 453 636.875 263 621.823Z" fill="#B001FF"/>
<path d="M263 667.764C111 660.896 26.3333 715.238 3 743.268V961C18.8333 959.764 66.3 950.113 129.5 921.395C208.5 885.496 364.5 858.377 624.5 891.739C881.988 924.779 899.678 916.679 1023.35 860.048L1027 858.377C1154 800.237 1255.5 829.892 1534.5 878.082C1757.7 916.634 1883.17 894.145 1918 878.082V530.413C1914.83 541.143 1882.5 567.287 1778.5 586.016C1648.5 609.428 1617 547.777 1509 530.413C1401 513.049 1112.5 565.141 1027 614.501C941.5 663.862 453 676.348 263 667.764Z" fill="#000AFF"/>
</g>
<defs>
<filter id="filter0_f_325_18" x="-147.5" y="0.254395" width="2215.5" height="1412.25" filterUnits="userSpaceOnUse" color-interpolation-filters="sRGB">
<feFlood flood-opacity="0" result="BackgroundImageFix"/>
<feBlend mode="normal" in="SourceGraphic" in2="BackgroundImageFix" result="shape"/>
<feGaussianBlur stdDeviation="75" result="effect1_foregroundBlur_325_18"/>
</filter>
</defs>
</svg>
