<svg width="1250" height="1267" viewBox="0 0 1250 1267" fill="none" xmlns="http://www.w3.org/2000/svg">
<g filter="url(#filter0_f_176_150)">
<path d="M838.703 335.108C863.17 197.161 1010.89 37.8127 1081.7 -24.618C1038.72 -61.1006 935.781 -144.758 867.801 -187.525C782.827 -240.984 469.883 -459.697 232.642 -562.927C-4.59961 -666.156 -61.5869 -612.37 -189.079 -498.716C-316.572 -385.061 -391.468 -162.099 -559.04 220.925C-726.613 603.948 -626.555 626.879 -615.79 811.61C-605.024 996.342 -541.825 893.62 -264.45 1045.99C12.9246 1198.36 -66.0027 978.587 13.535 922.547C92.0334 867.24 222.745 800.692 325.629 748.311L329.699 746.239C433.184 693.55 604.902 684.085 669.455 664.326C734.007 644.567 808.118 507.542 838.703 335.108Z" fill="#FF0101"/>
<path d="M677.324 218.806C697.361 89.4785 838.157 -56.3961 906.051 -113.167C862.654 -148.826 758.806 -230.723 690.597 -273.042C605.334 -325.942 290.689 -541.343 53.9987 -645.646C-182.691 -749.948 -237.233 -700.92 -359.45 -597.527C-481.667 -494.134 -548.866 -286.144 -702.626 70.0132C-856.387 426.171 -757.168 450.733 -741.128 625.204C-725.087 799.674 -665.869 704.694 -388.206 856.505C-110.543 1008.32 -194.746 798.804 -118.062 748.314C-42.3793 698.485 84.3958 639.595 184.18 593.243L188.128 591.409C288.495 544.784 457.336 540.916 520.329 524.189C583.323 507.462 652.279 380.466 677.324 218.806Z" fill="#7B13FF"/>
</g>
<defs>
<filter id="filter0_f_176_150" x="-955.396" y="-871.586" width="2205.09" height="2138.45" filterUnits="userSpaceOnUse" color-interpolation-filters="sRGB">
<feFlood flood-opacity="0" result="BackgroundImageFix"/>
<feBlend mode="normal" in="SourceGraphic" in2="BackgroundImageFix" result="shape"/>
<feGaussianBlur stdDeviation="84" result="effect1_foregroundBlur_176_150"/>
</filter>
</defs>
</svg>
