<svg width="1920" height="574" viewBox="0 0 1920 574" fill="none" xmlns="http://www.w3.org/2000/svg">
<g filter="url(#filter0_f_305_441)">
<path d="M250.424 389.665C-17.4172 322.773 -17.2785 484.873 16.2709 574.284C51.8998 633.85 242.355 766.672 719.145 821.429C1315.13 889.874 1331.35 839.187 1646.19 821.429C1961.03 803.67 1910.7 693.417 1920.68 517.677C1930.67 341.938 1699.84 529.517 1746.42 294.581C1793 59.6459 1518.92 213.926 1385 154.36C1251.08 94.7938 1080.56 243.895 936.661 413.714C792.759 583.533 585.224 473.28 250.424 389.665Z" fill="#FF0101"/>
<path d="M250.424 389.665C-17.4172 322.773 -17.2785 484.873 16.2709 574.284C51.8998 633.85 242.355 766.672 719.145 821.429C1315.13 889.874 1331.35 839.187 1646.19 821.429C1961.03 803.67 1910.7 693.417 1920.68 517.677C1930.67 341.938 1699.84 529.517 1746.42 294.581C1793 59.6459 1518.92 213.926 1385 154.36C1251.08 94.7938 1080.56 243.895 936.661 413.714C792.759 583.533 585.224 473.28 250.424 389.665Z" stroke="black"/>
</g>
<g filter="url(#filter1_f_305_441)">
<path d="M405.91 411.97C183.156 358.775 183.272 487.683 211.173 558.787C240.805 606.156 399.2 711.782 795.728 755.327C1291.39 809.758 1304.88 769.449 1566.72 755.327C1828.56 741.204 1786.7 653.526 1795.01 513.771C1803.31 374.016 1611.34 523.186 1650.08 336.355C1688.82 149.524 1460.88 272.215 1349.5 224.845C1238.12 177.476 1096.31 296.047 976.629 431.095C856.951 566.142 684.352 478.464 405.91 411.97Z" fill="#4607CE"/>
<path d="M405.91 411.97C183.156 358.775 183.272 487.683 211.173 558.787C240.805 606.156 399.2 711.782 795.728 755.327C1291.39 809.758 1304.88 769.449 1566.72 755.327C1828.56 741.204 1786.7 653.526 1795.01 513.771C1803.31 374.016 1611.34 523.186 1650.08 336.355C1688.82 149.524 1460.88 272.215 1349.5 224.845C1238.12 177.476 1096.31 296.047 976.629 431.095C856.951 566.142 684.352 478.464 405.91 411.97Z" stroke="black"/>
</g>
<g filter="url(#filter2_f_305_441)">
<path d="M570.684 519.936C391.779 478.085 391.872 579.502 414.281 635.442C438.08 672.709 565.294 755.809 883.766 790.067C1281.86 832.89 1292.69 801.178 1502.99 790.067C1713.28 778.956 1679.67 709.977 1686.34 600.026C1693 490.076 1538.82 607.433 1569.94 460.447C1601.05 313.46 1417.98 409.985 1328.53 372.718C1239.07 335.451 1125.18 428.735 1029.06 534.982C932.937 641.229 794.314 572.249 570.684 519.936Z" fill="#B001FF"/>
<path d="M570.684 519.936C391.779 478.085 391.872 579.502 414.281 635.442C438.08 672.709 565.294 755.809 883.766 790.067C1281.86 832.89 1292.69 801.178 1502.99 790.067C1713.28 778.956 1679.67 709.977 1686.34 600.026C1693 490.076 1538.82 607.433 1569.94 460.447C1601.05 313.46 1417.98 409.985 1328.53 372.718C1239.07 335.451 1125.18 428.735 1029.06 534.982C932.937 641.229 794.314 572.249 570.684 519.936Z" stroke="black"/>
</g>
<defs>
<filter id="filter0_f_305_441" x="-139.5" y="0.499023" width="2201" height="996.193" filterUnits="userSpaceOnUse" color-interpolation-filters="sRGB">
<feFlood flood-opacity="0" result="BackgroundImageFix"/>
<feBlend mode="normal" in="SourceGraphic" in2="BackgroundImageFix" result="shape"/>
<feGaussianBlur stdDeviation="70" result="effect1_foregroundBlur_305_441"/>
</filter>
<filter id="filter1_f_305_441" x="57.9731" y="73.7202" width="1877.79" height="849.752" filterUnits="userSpaceOnUse" color-interpolation-filters="sRGB">
<feFlood flood-opacity="0" result="BackgroundImageFix"/>
<feBlend mode="normal" in="SourceGraphic" in2="BackgroundImageFix" result="shape"/>
<feGaussianBlur stdDeviation="70" result="effect1_foregroundBlur_305_441"/>
</filter>
<filter id="filter2_f_305_441" x="263.581" y="223.859" width="1563.46" height="728.458" filterUnits="userSpaceOnUse" color-interpolation-filters="sRGB">
<feFlood flood-opacity="0" result="BackgroundImageFix"/>
<feBlend mode="normal" in="SourceGraphic" in2="BackgroundImageFix" result="shape"/>
<feGaussianBlur stdDeviation="70" result="effect1_foregroundBlur_305_441"/>
</filter>
</defs>
</svg>
