<svg width="693" height="2212" viewBox="0 0 693 2212" fill="none" xmlns="http://www.w3.org/2000/svg">
<g filter="url(#filter0_f_325_14)">
<path d="M337.796 924.893C209.016 474.357 512.274 220.574 680 150V2016.04C646.419 2000.04 561.667 1982.65 491.308 2041.1C403.358 2114.17 204.539 1990.97 154.434 1744.58C104.329 1498.2 498.77 1488.06 337.796 924.893Z" fill="#FF0101"/>
<path d="M371.5 936C250.7 513.6 535.167 275.667 692.5 209.5V1959C661 1944 581.5 1927.7 515.5 1982.5C433 2051 246.5 1935.5 199.5 1704.5C152.5 1473.5 522.5 1464 371.5 936Z" fill="#BD00FF"/>
<path d="M457.331 1024.47C368.643 682.321 577.49 489.595 693 436V1853.09C669.874 1840.94 611.507 1827.74 563.051 1872.13C502.482 1927.61 365.56 1834.06 331.054 1646.95C296.548 1459.84 568.191 1452.15 457.331 1024.47Z" fill="#4807E1"/>
</g>
<defs>
<filter id="filter0_f_325_14" x="0" y="0" width="843" height="2212" filterUnits="userSpaceOnUse" color-interpolation-filters="sRGB">
<feFlood flood-opacity="0" result="BackgroundImageFix"/>
<feBlend mode="normal" in="SourceGraphic" in2="BackgroundImageFix" result="shape"/>
<feGaussianBlur stdDeviation="75" result="effect1_foregroundBlur_325_14"/>
</filter>
</defs>
</svg>
